<?xml version="1.0" encoding="UTF-8" standalone="no"?>
<!-- Created with Inkscape (http://www.inkscape.org/) -->

<svg
   width="1026.2517"
   height="777.33331"
   viewBox="0 0 1026.2517 777.33331"
   version="1.1"
   id="svg1"
   xml:space="preserve"
   xmlns="http://www.w3.org/2000/svg"
   xmlns:svg="http://www.w3.org/2000/svg"><defs
     id="defs1" /><g
     id="layer1"
     transform="translate(-19.440725,924.98794)"><g
       id="g74"
       style="fill:#ffffff"
       transform="matrix(5.9789874,0,0,5.9789874,-2637.605,-3822.8795)"><rect
         style="opacity:0.7;fill:#ffffff;stroke:none;stroke-width:3.889;stroke-dasharray:none"
         id="rect5"
         width="10.271733"
         height="10.271733"
         x="444.39728"
         y="495.83151" /><rect
         style="opacity:0.7;fill:#ffffff;stroke:none;stroke-width:3.889;stroke-dasharray:none"
         id="rect6"
         width="10.271733"
         height="10.271733"
         x="462.91306"
         y="495.83151" /><rect
         style="opacity:0.7;fill:#ffffff;stroke:none;stroke-width:3.889;stroke-dasharray:none"
         id="rect7"
         width="10.271733"
         height="10.271733"
         x="480.71741"
         y="495.83151" /><rect
         style="opacity:0.7;fill:#ffffff;stroke:none;stroke-width:3.889;stroke-dasharray:none"
         id="rect8"
         width="10.271733"
         height="10.271733"
         x="498.52176"
         y="495.83151" /><rect
         style="opacity:0.7;fill:#ffffff;stroke:none;stroke-width:3.889;stroke-dasharray:none"
         id="rect9"
         width="10.271733"
         height="10.271733"
         x="516.32611"
         y="495.83151" /><rect
         style="opacity:0.7;fill:#ffffff;stroke:none;stroke-width:3.889;stroke-dasharray:none"
         id="rect10"
         width="10.271733"
         height="10.271733"
         x="534.13043"
         y="495.83151" /><rect
         style="opacity:0.7;fill:#ffffff;stroke:none;stroke-width:3.889;stroke-dasharray:none"
         id="rect11"
         width="10.271733"
         height="10.271733"
         x="551.93481"
         y="495.83151" /><rect
         style="opacity:0.7;fill:#ffffff;stroke:none;stroke-width:3.889;stroke-dasharray:none"
         id="rect12"
         width="10.271733"
         height="10.271733"
         x="569.73914"
         y="495.83151" /><rect
         style="opacity:0.7;fill:#ffffff;stroke:none;stroke-width:3.889;stroke-dasharray:none"
         id="rect13"
         width="10.271733"
         height="10.271733"
         x="587.54352"
         y="495.83151" /><rect
         style="opacity:0.7;fill:#ffffff;stroke:none;stroke-width:3.889;stroke-dasharray:none"
         id="rect14"
         width="10.271733"
         height="10.271733"
         x="605.76862"
         y="495.83151" /><rect
         style="fill:#ffffff;stroke:none;stroke-width:11.7127;stroke-dasharray:none"
         id="rect16"
         width="171.64307"
         height="5.5760813"
         x="444.39728"
         y="484.67932" /><path
         d="m 489.6873,509.79901 c -6.88353,0 -12.51756,5.63599 -12.51756,12.51953 v 54.73437 c 0,6.88355 5.63404,12.51758 12.51756,12.51758 h 81.38405 c 6.88353,0 12.51953,-5.63403 12.51953,-12.51758 v -54.73437 c 0,-6.88354 -5.63599,-12.51953 -12.51953,-12.51953 z m 0,6 h 81.38405 c 3.66332,0 6.51953,2.8562 6.51953,6.51953 v 54.73437 c 0,3.66334 -2.85621,6.51758 -6.51953,6.51758 H 489.6873 c -3.66332,0 -6.51757,-2.85424 -6.51757,-6.51758 v -54.73437 c 0,-3.66332 2.85425,-6.51953 6.51757,-6.51953 z"
         id="rect1"
         style="fill:#ffffff" /><path
         id="rect2"
         d="m 602.40954,509.88104 c -6.87186,0 -12.49805,5.62619 -12.49805,12.49805 v 54.61328 c 0,6.87186 5.62619,12.49609 12.49805,12.49609 h 13.6308 v -6 h -13.6308 c -3.65165,0 -6.49805,-2.84445 -6.49805,-6.49609 v -54.61328 c 0,-3.65166 2.8464,-6.49805 6.49805,-6.49805 h 13.6308 v -6 z"
         style="fill:#ffffff" /><rect
         style="opacity:0.7;fill:#ffffff;stroke:none;stroke-width:3.889;stroke-dasharray:none"
         id="rect64"
         width="10.271733"
         height="10.271733"
         x="444.39728"
         y="-603.53796"
         transform="scale(1,-1)" /><rect
         style="opacity:0.7;fill:#ffffff;stroke:none;stroke-width:3.889;stroke-dasharray:none"
         id="rect65"
         width="10.271733"
         height="10.271733"
         x="462.91306"
         y="-603.53796"
         transform="scale(1,-1)" /><rect
         style="opacity:0.7;fill:#ffffff;stroke:none;stroke-width:3.889;stroke-dasharray:none"
         id="rect66"
         width="10.271733"
         height="10.271733"
         x="480.71741"
         y="-603.53796"
         transform="scale(1,-1)" /><rect
         style="opacity:0.7;fill:#ffffff;stroke:none;stroke-width:3.889;stroke-dasharray:none"
         id="rect67"
         width="10.271733"
         height="10.271733"
         x="498.52176"
         y="-603.53796"
         transform="scale(1,-1)" /><rect
         style="opacity:0.7;fill:#ffffff;stroke:none;stroke-width:3.889;stroke-dasharray:none"
         id="rect68"
         width="10.271733"
         height="10.271733"
         x="516.32611"
         y="-603.53796"
         transform="scale(1,-1)" /><rect
         style="opacity:0.7;fill:#ffffff;stroke:none;stroke-width:3.889;stroke-dasharray:none"
         id="rect69"
         width="10.271733"
         height="10.271733"
         x="534.13043"
         y="-603.53796"
         transform="scale(1,-1)" /><rect
         style="opacity:0.7;fill:#ffffff;stroke:none;stroke-width:3.889;stroke-dasharray:none"
         id="rect70"
         width="10.271733"
         height="10.271733"
         x="551.93481"
         y="-603.53796"
         transform="scale(1,-1)" /><rect
         style="opacity:0.7;fill:#ffffff;stroke:none;stroke-width:3.889;stroke-dasharray:none"
         id="rect71"
         width="10.271733"
         height="10.271733"
         x="569.73914"
         y="-603.53796"
         transform="scale(1,-1)" /><rect
         style="opacity:0.7;fill:#ffffff;stroke:none;stroke-width:3.889;stroke-dasharray:none"
         id="rect72"
         width="10.271733"
         height="10.271733"
         x="587.54352"
         y="-603.53796"
         transform="scale(1,-1)" /><rect
         style="opacity:0.7;fill:#ffffff;stroke:none;stroke-width:3.889;stroke-dasharray:none"
         id="rect73"
         width="10.271733"
         height="10.271733"
         x="605.76862"
         y="-603.53796"
         transform="scale(1,-1)" /><rect
         style="fill:#ffffff;stroke:none;stroke-width:11.7127;stroke-dasharray:none"
         id="rect74"
         width="171.64307"
         height="5.5760813"
         x="444.39728"
         y="-614.69019"
         transform="scale(1,-1)" /><path
         id="path74"
         d="m 458.02808,509.88104 c 6.87186,0 12.49805,5.62619 12.49805,12.49805 v 54.61328 c 0,6.87186 -5.62619,12.49609 -12.49805,12.49609 h -13.6308 v -6 h 13.6308 c 3.65165,0 6.49805,-2.84445 6.49805,-6.49609 v -54.61328 c 0,-3.65166 -2.8464,-6.49805 -6.49805,-6.49805 h -13.6308 v -6 z"
         style="fill:#ffffff" /></g></g></svg>
