<?xml version="1.0" encoding="UTF-8" standalone="no"?>
<!-- Created with Inkscape (http://www.inkscape.org/) -->

<svg
   width="1026.2517"
   height="777.33331"
   viewBox="0 0 1026.2517 777.33331"
   version="1.1"
   id="svg1"
   xml:space="preserve"
   xmlns="http://www.w3.org/2000/svg"
   xmlns:svg="http://www.w3.org/2000/svg"><defs
     id="defs1" /><g
     id="layer1"
     transform="translate(-19.440725,-166.43726)"><g
       id="g96"
       style="fill:#ffffff"
       transform="matrix(5.9789874,0,0,5.9789874,-2637.605,-2731.4543)"><rect
         style="opacity:0.7;fill:#ffffff;stroke:none;stroke-width:3.889;stroke-dasharray:none"
         id="rect75"
         width="10.271733"
         height="10.271733"
         x="444.39728"
         y="495.83151" /><rect
         style="opacity:0.7;fill:#ffffff;stroke:none;stroke-width:3.889;stroke-dasharray:none"
         id="rect76"
         width="10.271733"
         height="10.271733"
         x="462.91306"
         y="495.83151" /><rect
         style="opacity:0.7;fill:#ffffff;stroke:none;stroke-width:3.889;stroke-dasharray:none"
         id="rect77"
         width="10.271733"
         height="10.271733"
         x="480.71741"
         y="495.83151" /><rect
         style="opacity:0.7;fill:#ffffff;stroke:none;stroke-width:3.889;stroke-dasharray:none"
         id="rect78"
         width="10.271733"
         height="10.271733"
         x="498.52176"
         y="495.83151" /><rect
         style="opacity:0.7;fill:#ffffff;stroke:none;stroke-width:3.889;stroke-dasharray:none"
         id="rect79"
         width="10.271733"
         height="10.271733"
         x="516.32611"
         y="495.83151" /><rect
         style="opacity:0.7;fill:#ffffff;stroke:none;stroke-width:3.889;stroke-dasharray:none"
         id="rect80"
         width="10.271733"
         height="10.271733"
         x="534.13043"
         y="495.83151" /><rect
         style="opacity:0.7;fill:#ffffff;stroke:none;stroke-width:3.889;stroke-dasharray:none"
         id="rect81"
         width="10.271733"
         height="10.271733"
         x="551.93481"
         y="495.83151" /><rect
         style="opacity:0.7;fill:#ffffff;stroke:none;stroke-width:3.889;stroke-dasharray:none"
         id="rect82"
         width="10.271733"
         height="10.271733"
         x="569.73914"
         y="495.83151" /><rect
         style="opacity:0.7;fill:#ffffff;stroke:none;stroke-width:3.889;stroke-dasharray:none"
         id="rect83"
         width="10.271733"
         height="10.271733"
         x="587.54352"
         y="495.83151" /><rect
         style="opacity:0.7;fill:#ffffff;stroke:none;stroke-width:3.889;stroke-dasharray:none"
         id="rect84"
         width="10.271733"
         height="10.271733"
         x="605.76862"
         y="495.83151" /><rect
         style="fill:#ffffff;stroke:none;stroke-width:11.7127;stroke-dasharray:none"
         id="rect85"
         width="171.64307"
         height="5.5760813"
         x="444.39728"
         y="484.67932" /><path
         id="path86"
         d="m 591.61848,509.88104 c -6.87186,0 -12.49805,5.62619 -12.49805,12.49805 v 54.61328 c 0,6.87186 5.62619,12.49609 12.49805,12.49609 h 24.42186 v -6 h -24.42186 c -3.65165,0 -6.49805,-2.84445 -6.49805,-6.49609 v -54.61328 c 0,-3.65166 2.8464,-6.49805 6.49805,-6.49805 h 24.42186 v -6 z"
         style="fill:#ffffff" /><rect
         style="opacity:0.7;fill:#ffffff;stroke:none;stroke-width:3.889;stroke-dasharray:none"
         id="rect86"
         width="10.271733"
         height="10.271733"
         x="444.39728"
         y="-603.53796"
         transform="scale(1,-1)" /><rect
         style="opacity:0.7;fill:#ffffff;stroke:none;stroke-width:3.889;stroke-dasharray:none"
         id="rect87"
         width="10.271733"
         height="10.271733"
         x="462.91306"
         y="-603.53796"
         transform="scale(1,-1)" /><rect
         style="opacity:0.7;fill:#ffffff;stroke:none;stroke-width:3.889;stroke-dasharray:none"
         id="rect88"
         width="10.271733"
         height="10.271733"
         x="480.71741"
         y="-603.53796"
         transform="scale(1,-1)" /><rect
         style="opacity:0.7;fill:#ffffff;stroke:none;stroke-width:3.889;stroke-dasharray:none"
         id="rect89"
         width="10.271733"
         height="10.271733"
         x="498.52176"
         y="-603.53796"
         transform="scale(1,-1)" /><rect
         style="opacity:0.7;fill:#ffffff;stroke:none;stroke-width:3.889;stroke-dasharray:none"
         id="rect90"
         width="10.271733"
         height="10.271733"
         x="516.32611"
         y="-603.53796"
         transform="scale(1,-1)" /><rect
         style="opacity:0.7;fill:#ffffff;stroke:none;stroke-width:3.889;stroke-dasharray:none"
         id="rect91"
         width="10.271733"
         height="10.271733"
         x="534.13043"
         y="-603.53796"
         transform="scale(1,-1)" /><rect
         style="opacity:0.7;fill:#ffffff;stroke:none;stroke-width:3.889;stroke-dasharray:none"
         id="rect92"
         width="10.271733"
         height="10.271733"
         x="551.93481"
         y="-603.53796"
         transform="scale(1,-1)" /><rect
         style="opacity:0.7;fill:#ffffff;stroke:none;stroke-width:3.889;stroke-dasharray:none"
         id="rect93"
         width="10.271733"
         height="10.271733"
         x="569.73914"
         y="-603.53796"
         transform="scale(1,-1)" /><rect
         style="opacity:0.7;fill:#ffffff;stroke:none;stroke-width:3.889;stroke-dasharray:none"
         id="rect94"
         width="10.271733"
         height="10.271733"
         x="587.54352"
         y="-603.53796"
         transform="scale(1,-1)" /><rect
         style="opacity:0.7;fill:#ffffff;stroke:none;stroke-width:3.889;stroke-dasharray:none"
         id="rect95"
         width="10.271733"
         height="10.271733"
         x="605.76862"
         y="-603.53796"
         transform="scale(1,-1)" /><rect
         style="fill:#ffffff;stroke:none;stroke-width:11.7127;stroke-dasharray:none"
         id="rect96"
         width="171.64307"
         height="5.5760813"
         x="444.39728"
         y="-614.69019"
         transform="scale(1,-1)" /><path
         id="path96"
         d="m 464.66873,509.88104 c 6.87186,0 12.49805,5.62619 12.49805,12.49805 v 54.61328 c 0,6.87186 -5.62619,12.49609 -12.49805,12.49609 h -20.27145 v -6 h 20.27145 c 3.65165,0 6.49805,-2.84445 6.49805,-6.49609 v -54.61328 c 0,-3.65166 -2.8464,-6.49805 -6.49805,-6.49805 h -20.27145 v -6 z"
         style="fill:#ffffff" /><path
         id="path99"
         style="opacity:1;fill:#ffffff;stroke:none;stroke-width:3.889;stroke-dasharray:none"
         d="m 543.33157,535.10785 v 11.78906 h -54.5224 v 9.09766 h 54.5224 v 11.78906 l 28.29688,-16.33789 z" /></g></g></svg>
